# xmcd CD database file
#
# Track frame offsets:
#	150
#	13885
#	50645
#	69697
#	85096
#	95874
#	105646
#	130316
#	184386
#	234612
#	275001
#	281839
#	323238
#
# Disc length: 4738 seconds
#
# Revision: 0
# Processed by: cddbd v1.5.2PL0 Copyright (c) Steve Scherf et al.
# Submitted via: CDex 1.70beta2
#
DISCID=cc12800d
DTITLE=Glazz - The Jamming Sessions. Take 2
DYEAR=2013
DGENRE=Jazz
TTITLE0=Neptune's Anger
TTITLE1=Giant dune
TTITLE2=Annexation
TTITLE3=Meet My Gods
TTITLE4=Baco's Tabern
TTITLE5=Modern Life
TTITLE6=Exile
TTITLE7=Mare Nostrum
TTITLE8=The Legion
TTITLE9=Zama's Battle
TTITLE10=Desertion
TTITLE11=The Oracle
TTITLE12=Idiosyncrasy
EXTD=YEAR: 2013
EXTT0=
EXTT1=
EXTT2=
EXTT3=
EXTT4=
EXTT5=
EXTT6=
EXTT7=
EXTT8=
EXTT9=
EXTT10=
EXTT11=
EXTT12=
PLAYORDER=
